# Blender 3.6.1
# www.blender.org
o 0011_1000
v 0.000000 1.000000 1.000000
v 1.000000 0.000000 -1.000000
v 1.000000 0.000000 1.000000
v 0.000000 1.000000 -1.000000
v -1.000000 0.000000 1.000000
v -1.000000 -1.000000 0.000000
v 0.000000 -1.000000 1.000000
vn -0.7071 0.7071 -0.0000
vn -0.9045 0.3015 -0.3015
vn -0.3015 -0.3015 -0.9045
vn 0.3015 -0.9045 -0.3015
vn 0.7071 -0.7071 -0.0000
vt 0.000000 0.000000
s 0
f 5/1/1 1/1/1 4/1/1
f 6/1/2 5/1/2 4/1/2
f 4/1/3 2/1/3 6/1/3
f 6/1/4 2/1/4 7/1/4
f 7/1/5 2/1/5 3/1/5
