# Blender 4.1.0
# www.blender.org
o 0100_0011
v 1.000000 0.000000 -1.000000
v 1.000000 0.000000 1.000000
v -1.000000 1.000000 0.000000
v -1.000000 0.000000 -1.000000
v 0.000000 -1.000000 -1.000000
v 0.000000 1.000000 -1.000000
v 0.000000 -1.000000 1.000000
vn -0.7071 -0.7071 -0.0000
vn -0.9045 -0.3015 0.3015
vn -0.3015 0.3015 0.9045
vn 0.3015 0.9045 0.3015
vn 0.7071 0.7071 -0.0000
vt 0.000000 0.000000
s 1
f 4/1/1 5/1/1 7/1/1
f 4/1/2 7/1/2 3/1/2
f 7/1/3 2/1/3 3/1/3
f 3/1/4 2/1/4 6/1/4
f 6/1/5 2/1/5 1/1/5
