# Blender 4.1.0
# www.blender.org
o 0110_0001
v 0.000000 0.000000 0.000000
v 0.000000 1.000000 1.000000
v 1.000000 0.000000 -1.000000
v 1.000000 1.000000 0.000000
v 1.000000 0.000000 1.000000
v 1.000000 -1.000000 0.000000
v -1.000000 1.000000 0.000000
v -1.000000 0.000000 -1.000000
v 0.000000 -1.000000 -1.000000
v 0.000000 1.000000 -1.000000
vn 0.5774 0.5774 -0.5774
vn -0.5774 -0.5774 0.5774
vt 0.000000 0.000000
s 1
f 4/1/1 3/1/1 10/1/1
f 6/1/2 1/1/2 9/1/2
f 5/1/2 1/1/2 6/1/2
f 5/1/2 2/1/2 1/1/2
f 1/1/2 2/1/2 7/1/2
f 7/1/2 8/1/2 1/1/2
f 1/1/2 8/1/2 9/1/2
