# Blender 3.6.0
# www.blender.org
o 1011_0100.001
v 1.000000 0.000000 -1.000000
v 1.000000 0.000000 1.000000
v -1.000000 1.000000 0.000000
v -1.000000 0.000000 -1.000000
v 0.000000 -1.000000 -1.000000
v 0.000000 1.000000 -1.000000
v -1.000000 0.000000 1.000000
v -1.000000 -1.000000 0.000000
vn 0.3015 -0.9045 0.3015
vn 0.7071 -0.7071 -0.0000
vn -0.0000 -0.7071 0.7071
vn -0.5774 0.5774 -0.5774
vt 0.000000 0.000000
s 0
f 5/1/1 2/1/1 8/1/1
f 2/1/2 5/1/2 1/1/2
f 8/1/3 2/1/3 7/1/3
f 4/1/4 3/1/4 6/1/4
