# Blender 4.1.0
# www.blender.org
o 0110_1001
v 0.000000 1.000000 1.000000
v 1.000000 0.000000 -1.000000
v 1.000000 1.000000 0.000000
v 1.000000 0.000000 1.000000
v 1.000000 -1.000000 0.000000
v -1.000000 1.000000 0.000000
v -1.000000 0.000000 -1.000000
v 0.000000 -1.000000 -1.000000
v 0.000000 1.000000 -1.000000
v -1.000000 0.000000 1.000000
v -1.000000 -1.000000 0.000000
v 0.000000 -1.000000 1.000000
vn -0.5774 -0.5774 -0.5774
vn 0.5774 -0.5774 0.5774
vn 0.5774 0.5774 -0.5774
vn -0.5774 0.5774 0.5774
vt 0.000000 0.000000
s 1
f 8/1/1 11/1/1 7/1/1
f 5/1/2 4/1/2 12/1/2
f 3/1/3 2/1/3 9/1/3
f 6/1/4 10/1/4 1/1/4
