# Blender 3.6.1
# www.blender.org
o 1000_0110
v 0.000000 0.000000 0.000000
v 0.000000 1.000000 1.000000
v 1.000000 0.000000 1.000000
v 1.000000 -1.000000 0.000000
v -1.000000 1.000000 0.000000
v -1.000000 0.000000 -1.000000
v 0.000000 -1.000000 -1.000000
v -1.000000 0.000000 1.000000
v -1.000000 -1.000000 0.000000
v 0.000000 -1.000000 1.000000
vn -0.5774 -0.5774 0.5774
vn 0.5774 0.5774 -0.5774
vt 0.000000 0.000000
s 0
f 9/1/1 10/1/1 8/1/1
f 3/1/2 4/1/2 1/1/2
f 1/1/2 2/1/2 3/1/2
f 5/1/2 2/1/2 1/1/2
f 5/1/2 1/1/2 6/1/2
f 6/1/2 1/1/2 7/1/2
f 1/1/2 4/1/2 7/1/2
