# Blender 4.1.0
# www.blender.org
o 1010_0001
v 1.000000 0.000000 -1.000000
v 1.000000 1.000000 0.000000
v 1.000000 0.000000 1.000000
v 1.000000 -1.000000 0.000000
v -1.000000 1.000000 0.000000
v 0.000000 -1.000000 -1.000000
v -1.000000 0.000000 1.000000
vn -0.0000 0.7071 -0.7071
vn -0.3015 0.3015 -0.9045
vn -0.9045 -0.3015 -0.3015
vn -0.3015 -0.9045 0.3015
vn -0.0000 -0.7071 0.7071
vt 0.000000 0.000000
s 1
f 1/1/1 5/1/1 2/1/1
f 6/1/2 5/1/2 1/1/2
f 5/1/3 6/1/3 7/1/3
f 6/1/4 4/1/4 7/1/4
f 7/1/5 4/1/5 3/1/5
