# Blender 4.2.1 LTS
# www.blender.org
o 1100_0011
v 0.000000 1.000000 1.000000
v 1.000000 0.000000 -1.000000
v 0.500000 0.500000 0.000000
v 1.000000 0.000000 1.000000
v -1.000000 0.000000 -1.000000
v 0.000000 -1.000000 -1.000000
v 0.000000 1.000000 -1.000000
v -1.000000 0.000000 1.000000
v -0.500000 -0.500000 0.000000
v 0.000000 -1.000000 1.000000
vn 0.7071 0.7071 -0.0000
vn -0.7071 -0.7071 -0.0000
vt 0.000000 0.000000
s 1
f 3/1/1 2/1/1 7/1/1
f 7/1/1 1/1/1 3/1/1
f 3/1/1 1/1/1 4/1/1
f 3/1/1 4/1/1 2/1/1
f 9/1/2 5/1/2 6/1/2
f 9/1/2 6/1/2 10/1/2
f 8/1/2 9/1/2 10/1/2
f 5/1/2 9/1/2 8/1/2
