# Blender 3.6.0
# www.blender.org
o 0111_1000
v 14.000000 3.000000 -25.000000
v 15.000000 2.000000 -27.000000
v 15.000000 2.000000 -25.000000
v 13.000000 3.000000 -26.000000
v 13.000000 2.000000 -27.000000
v 13.000000 2.000000 -25.000000
v 13.000000 1.000000 -26.000000
v 14.000000 1.000000 -25.000000
vn -0.5774 0.5774 0.5774
vn -0.0000 -0.7071 -0.7071
vn 0.3015 -0.9045 -0.3015
vn 0.7071 -0.7071 -0.0000
vt 0.000000 0.000000
s 0
f 4/1/1 6/1/1 1/1/1
f 7/1/2 5/1/2 2/1/2
f 8/1/3 7/1/3 2/1/3
f 8/1/4 2/1/4 3/1/4
