# Blender 3.6.0
# www.blender.org
o 1001_1000
v 14.000000 1.000000 -6.000000
v 14.000000 2.000000 -6.000000
v 14.000000 3.000000 -5.000000
v 15.000000 2.000000 -7.000000
v 15.000000 3.000000 -6.000000
v 13.000000 3.000000 -6.000000
v 14.000000 3.000000 -7.000000
v 13.000000 1.000000 -6.000000
v 14.000000 1.000000 -5.000000
vn 0.3015 -0.9045 -0.3015
vn 0.9045 -0.3015 0.3015
vn 0.7071 -0.0000 0.7071
vn -0.3015 -0.3015 -0.9045
vn -0.7071 -0.0000 -0.7071
vt 0.000000 0.000000
s 0
f 8/1/1 4/1/1 9/1/1
f 5/1/2 9/1/2 4/1/2
f 9/1/3 5/1/3 3/1/3
f 4/1/4 8/1/4 7/1/4
f 7/1/5 8/1/5 6/1/5
