# Blender 3.6.0
# www.blender.org
o 1010_0100
v 19.000000 3.000000 -22.000000
v 19.000000 2.000000 -21.000000
v 17.000000 3.000000 -22.000000
v 17.000000 2.000000 -23.000000
v 18.000000 1.000000 -23.000000
v 17.000000 2.000000 -21.000000
v 17.000000 1.000000 -22.000000
vn 0.9045 -0.3015 -0.3015
vn 0.3015 0.3015 -0.9045
vn -0.0000 0.7071 -0.7071
vn 0.3015 -0.9045 0.3015
vn -0.0000 -0.7071 0.7071
vt 0.000000 0.000000
s 0
f 1/1/1 2/1/1 5/1/1
f 5/1/2 4/1/2 1/1/2
f 1/1/3 4/1/3 3/1/3
f 7/1/4 5/1/4 2/1/4
f 7/1/5 2/1/5 6/1/5
